<svg width="25" height="25" viewBox="0 0 25 25" fill="none" xmlns="http://www.w3.org/2000/svg">
<g id="24/wallet">
<path id="Vector" d="M19.25 7.85197H5.1875V7.28947L17.5625 6.29947V7.28947H19.25V5.60197C19.25 4.36447 18.2476 3.49597 17.0236 3.67035L5.7275 5.2836C4.50238 5.4591 3.5 6.61447 3.5 7.85197V19.102C3.5 19.6987 3.73705 20.271 4.15901 20.693C4.58097 21.1149 5.15326 21.352 5.75 21.352H19.25C19.8467 21.352 20.419 21.1149 20.841 20.693C21.2629 20.271 21.5 19.6987 21.5 19.102V10.102C21.5 9.50524 21.2629 8.93294 20.841 8.51098C20.419 8.08903 19.8467 7.85197 19.25 7.85197ZM17.5625 15.7337C17.3408 15.7337 17.1213 15.6899 16.9165 15.605C16.7118 15.5201 16.5257 15.3957 16.369 15.2389C16.2123 15.0821 16.088 14.896 16.0033 14.6911C15.9185 14.4863 15.8749 14.2668 15.875 14.0451C15.8751 13.8234 15.9188 13.6039 16.0037 13.3991C16.0886 13.1944 16.213 13.0083 16.3698 12.8516C16.5266 12.6949 16.7128 12.5706 16.9176 12.4859C17.1224 12.4011 17.3419 12.3575 17.5636 12.3576C18.0113 12.3577 18.4406 12.5357 18.7571 12.8524C19.0736 13.1691 19.2513 13.5985 19.2511 14.0462C19.251 14.4939 19.073 14.9232 18.7563 15.2397C18.4396 15.5562 18.0102 15.7339 17.5625 15.7337Z" fill="#0D0F12"/>
</g>
</svg>
