<svg width="32" height="32" viewBox="0 0 32 32" fill="none" xmlns="http://www.w3.org/2000/svg">
<path d="M19.6061 14.6621L21.9562 10.6745L28.2905 20.5404L28.2935 22.4338L28.2729 9.40493C28.2654 9.2478 28.2202 9.09478 28.1412 8.95875C28.0622 8.82272 27.9517 8.70766 27.8189 8.62328L16.4148 2.06342C16.1482 1.93226 15.8097 1.93377 15.5434 2.06757C15.5074 2.0855 15.4736 2.10514 15.4414 2.12657L15.4016 2.15155L4.33211 8.5662L4.2892 8.58571C4.23397 8.61109 4.17807 8.64338 4.12574 8.68089C3.91807 8.82906 3.77655 9.05254 3.73139 9.30362C3.72442 9.34174 3.71971 9.38023 3.71729 9.4189L3.73469 20.0361L9.63477 10.8912C10.3777 9.67866 11.9961 9.28807 13.4985 9.30929L15.2618 9.35582L4.87186 26.0184L6.09663 26.7235L16.611 9.37276L21.2584 9.35589L10.7712 27.1445L15.1415 29.6582L15.6636 29.9585C15.8845 30.0483 16.1449 30.0528 16.3676 29.9723L27.932 23.2706L25.7211 24.5518L19.6061 14.6621ZM20.5027 27.5759L16.0886 20.6481L18.7832 16.0757L24.5802 25.2129L20.5027 27.5759Z" fill="#2D374B"/>
<path d="M16.0894 20.6481L20.5033 27.576L24.581 25.213L18.7838 16.0758L16.0894 20.6481ZM28.2942 22.4339L28.2911 20.5404L21.9568 10.6745L19.6068 14.6622L25.7217 24.5517L27.9326 23.2705C28.0397 23.1838 28.1273 23.0753 28.1897 22.9524C28.252 22.8295 28.2877 22.6947 28.2945 22.5571L28.2942 22.4339Z" fill="#28A0F0"/>
<path d="M1.75 24.2194L4.87217 26.0185L15.2621 9.35594L13.4988 9.30941C11.9963 9.28818 10.3778 9.67878 9.63501 10.8914L3.73493 20.0363L1.75 23.0861V24.2194ZM21.2587 9.35594L16.6113 9.37281L6.09694 26.7235L9.77204 28.8395L10.7715 27.1445L21.2587 9.35594Z" fill="white"/>
<path d="M30.2523 9.33205C30.2134 8.36012 29.6872 7.47038 28.8629 6.95238L17.3092 0.308154C16.4938 -0.10241 15.4752 -0.102937 14.6584 0.30789C14.5618 0.356599 3.42277 6.8168 3.42277 6.8168C3.26802 6.89115 3.12001 6.97881 2.98044 7.0788C2.2446 7.60616 1.79607 8.4257 1.75 9.32605V23.0861L3.73493 20.0363L3.71759 9.41906C3.7199 9.38023 3.72478 9.342 3.7317 9.3043C3.77675 9.05304 3.91828 8.82935 4.12605 8.68104C4.17845 8.64354 15.5078 2.08566 15.5438 2.06767C15.8101 1.93393 16.1485 1.93235 16.4151 2.06351L27.8193 8.62324C27.9521 8.70762 28.0626 8.82267 28.1416 8.9587C28.2206 9.09473 28.2657 9.24776 28.2732 9.40488V22.557C28.2595 22.8359 28.1492 23.0943 27.9324 23.2705L25.7214 24.5517L24.5806 25.2129L20.5031 27.5759L16.368 29.9723C16.1452 30.0528 15.8848 30.0482 15.6639 29.9584L10.7715 27.1445L9.77204 28.8395L14.1687 31.3709C14.3141 31.4537 14.4437 31.5269 14.55 31.5866C14.7146 31.6789 14.8267 31.7406 14.8664 31.7599C15.1788 31.9117 15.6285 32 16.0336 32C16.402 32.0005 16.7672 31.9319 17.1101 31.7975L29.1209 24.8418C29.8102 24.3076 30.2158 23.5021 30.2523 22.6295V9.33205Z" fill="#96BEDC"/>
</svg>
