<svg width="22" height="22" viewBox="0 0 32 32" fill="none" xmlns="http://www.w3.org/2000/svg"><path fill-rule="evenodd" clip-rule="evenodd" d="M27.121 11.121 18.88 2.88A3 3 0 0 0 16.757 2H7a3 3 0 0 0-3 3v22a3 3 0 0 0 3 3h9v-2H7a1 1 0 0 1-1-1V5a1 1 0 0 1 1-1h8.969v6.031a4 4 0 0 0 4 4H26v4.063h2v-4.851a3 3 0 0 0-.879-2.122Zm-1.918.91-7.234-7.234v5.234a2 2 0 0 0 2 2h5.234Z" fill="#fafafa"/><path d="M18.47 20.275a1 1 0 0 1 1.415.036l3.025 3.181 3.182-3.025a1 1 0 0 1 1.378 1.449l-3.181 3.026 3.026 3.181a1 1 0 1 1-1.45 1.379L22.84 26.32l-3.182 3.026a1 1 0 0 1-1.378-1.45l3.181-3.025-3.026-3.182a1 1 0 0 1 .036-1.414Z" fill="#fafafa"/></svg>