<svg width="20" height="21" fill="none" xmlns="http://www.w3.org/2000/svg"><path d="M17.505 8.01a.625.625 0 1 1-1.25 0V5.129l-5.774 5.773a.625.625 0 1 1-.884-.883l5.774-5.774H12.51a.625.625 0 0 1 0-1.25h4.37c.345 0 .625.28.625.625v4.39Z" fill="#9197A3"/><path d="M3.79 5.52c0-.69.559-1.25 1.25-1.25h4.364a.625.625 0 1 0 0-1.25H5.04a2.5 2.5 0 0 0-2.5 2.5v9.96a2.5 2.5 0 0 0 2.5 2.5H15a2.5 2.5 0 0 0 2.5-2.5v-4.355a.625.625 0 0 0-1.25 0v4.356c0 .69-.56 1.25-1.25 1.25H5.04c-.691 0-1.25-.56-1.25-1.25V5.52Z" fill="#9197A3"/></svg>