<svg width="20" height="21" fill="none" xmlns="http://www.w3.org/2000/svg"><g fill="#00C46B"><path d="M6.074 8.04h1.192L5.449 5.694 3.633 8.04h1.191v6.64a.625.625 0 1 0 1.25 0V8.04Z"/><path fill-rule="evenodd" clip-rule="evenodd" d="M1.387 3.977c0-.885.717-1.602 1.601-1.602H7.91c.885 0 1.602.717 1.602 1.602v13.046c0 .885-.717 1.602-1.602 1.602H2.988a1.602 1.602 0 0 1-1.601-1.602V3.977Zm1.601-.352a.352.352 0 0 0-.351.352v13.046c0 .195.157.352.351.352H7.91a.352.352 0 0 0 .352-.352V3.977a.352.352 0 0 0-.352-.352H2.988Z"/></g><g fill="#F6465D"><path d="M15.176 12.883v-6.64a.625.625 0 1 0-1.25 0v6.64h-1.192l1.817 2.344 1.816-2.344h-1.191Z"/><path fill-rule="evenodd" clip-rule="evenodd" d="M12.09 2.375c-.885 0-1.602.717-1.602 1.602v13.046c0 .885.717 1.602 1.602 1.602h4.922c.884 0 1.601-.717 1.601-1.602V3.977c0-.885-.717-1.602-1.601-1.602H12.09Zm-.352 1.602c0-.195.158-.352.352-.352h4.922c.194 0 .351.157.351.352v13.046a.352.352 0 0 1-.351.352H12.09a.352.352 0 0 1-.352-.352V3.977Z"/></g></svg>