<svg width="134" height="28" fill="none" xmlns="http://www.w3.org/2000/svg"><path d="M12.429 8.072H5.248C2.35 8.072.003 5.568 0 2.478h7.181c2.9 0 5.248 2.504 5.248 5.594ZM5.25 8.694h7.182c0 3.09-2.35 5.593-5.248 5.593H.003c0-3.09 2.347-5.593 5.248-5.593ZM24.86 8.694h-7.18c-2.9 0-5.248 2.504-5.248 5.593h7.181c2.9 0 5.248-2.504 5.248-5.593ZM24.858 8.072h-7.181c-2.896 0-5.245-2.504-5.248-5.594h7.181c2.9 0 5.248 2.504 5.248 5.594ZM12.432 21.745H5.25c-2.9 0-5.248 2.505-5.248 5.594h7.181c2.899 0 5.248-2.504 5.248-5.594ZM12.429 21.124H5.248C2.35 21.124.003 18.62 0 15.53h7.181c2.9 0 5.248 2.504 5.248 5.594ZM24.86 21.745h-7.18c-2.9 0-5.248 2.505-5.248 5.594h7.181c2.9 0 5.248-2.504 5.248-5.594ZM24.858 21.124h-7.181c-2.896 0-5.245-2.504-5.248-5.594h7.181c2.9 0 5.248 2.504 5.248 5.594ZM56.456 27.286h3.422V0l-3.422.971v26.315Z" fill="#fafafa"/><path fill-rule="evenodd" clip-rule="evenodd" d="M133.337 14.688a8.151 8.151 0 0 0-1.854-2.656 8.71 8.71 0 0 0-2.816-1.787 9.462 9.462 0 0 0-3.55-.649 8.88 8.88 0 0 0-3.577.708 8.63 8.63 0 0 0-2.818 1.94 8.984 8.984 0 0 0-1.856 2.889 9.388 9.388 0 0 0-.667 3.54 8.52 8.52 0 0 0 2.523 6.12 8.745 8.745 0 0 0 2.818 1.855 9.157 9.157 0 0 0 3.581.688 8.458 8.458 0 0 0 3.546-.74 8.82 8.82 0 0 0 2.812-2.015 9.287 9.287 0 0 0 1.853-2.982A9.908 9.908 0 0 0 134 17.96a8.094 8.094 0 0 0-.663-3.273Zm-3.42 7.469a7.03 7.03 0 0 1-.923 2.023 4.743 4.743 0 0 1-1.418 1.39 3.338 3.338 0 0 1-1.813.517 4.39 4.39 0 0 1-2.464-.7 6.064 6.064 0 0 1-1.829-1.923 9.65 9.65 0 0 1-1.137-2.849 15.078 15.078 0 0 1-.385-3.503 7.94 7.94 0 0 1 .363-2.424c.217-.71.542-1.38.965-1.99a4.805 4.805 0 0 1 1.392-1.34 3.046 3.046 0 0 1 1.631-.492c1.088 0 2.011.23 2.769.691a5.347 5.347 0 0 1 1.846 1.89 8.79 8.79 0 0 1 1.022 2.815c.215 1.142.32 2.301.313 3.463a8.77 8.77 0 0 1-.332 2.432Z" fill="#fafafa"/><path d="m96.701 9.596-5.375 6.846-4.554-6.846h-3.997l6.39 9.596-6.39 8.14h1.847l5.394-6.861.006.007L98.52 9.596h-1.819ZM92.068 23.558l2.5 3.773h3.96l-4.32-6.529-2.14 2.756ZM78.268 22.112c-.4.511-.874.96-1.407 1.333a7.471 7.471 0 0 1-1.842.94c-.68.24-1.395.36-2.117.358a4.954 4.954 0 0 1-2.415-.6 6.26 6.26 0 0 1-1.9-1.664c-.507-.64-.961-1.387-1.405-2.973a10.227 10.227 0 0 1-.288-3.532c.058-.7.28-1.82.759-2.699.601-1.103 1.25-1.742 1.85-2.08.56-.317.955-.342 1.466-.342a4.25 4.25 0 0 1 1.717.35 4.386 4.386 0 0 1 2.34 2.398c.232.571.349 1.182.343 1.799h-5.088v1.375h9.337a6.817 6.817 0 0 0-.558-2.715 7.12 7.12 0 0 0-1.566-2.29 7.616 7.616 0 0 0-2.406-1.583 7.8 7.8 0 0 0-3.065-.59 8.053 8.053 0 0 0-3.441.716 7.815 7.815 0 0 0-2.641 1.98 9.002 9.002 0 0 0-1.7 3.006 11.564 11.564 0 0 0-.602 3.789 7.927 7.927 0 0 0 .659 3.207c.422.98 1.03 1.87 1.79 2.622a8.484 8.484 0 0 0 2.658 1.766 8.224 8.224 0 0 0 3.256.642 7.123 7.123 0 0 0 2.6-.5 9.229 9.229 0 0 0 2.374-1.358 9.608 9.608 0 0 0 1.908-2.006 7.872 7.872 0 0 0 1.185-2.464h-1.167c-.165.395-.378.77-.634 1.115Z" fill="#fafafa"/><path fill-rule="evenodd" clip-rule="evenodd" d="M48.634 15.31a6.12 6.12 0 0 1 1.776 1.27c.494.518.88 1.13 1.135 1.798a6.16 6.16 0 0 1 .4 2.252 5.855 5.855 0 0 1-.587 2.606 6.218 6.218 0 0 1-1.698 2.113 8.32 8.32 0 0 1-2.657 1.419 10.986 10.986 0 0 1-3.483.518H32.253V13.767h9.225a6.181 6.181 0 0 0 2.163-.352 4.633 4.633 0 0 0 1.603-.974c.436-.415.775-.921.991-1.483a5.08 5.08 0 0 0 .337-1.863 4.697 4.697 0 0 0-.4-1.956 3.868 3.868 0 0 0-1.248-1.51 6.074 6.074 0 0 0-2.147-.965c-.842-.2-1.704-.307-2.57-.32V4.33h-7.954V2.699h9.72a13.543 13.543 0 0 1 3.54.436A8.95 8.95 0 0 1 48.28 4.37a5.867 5.867 0 0 1 1.792 1.91c.426.744.646 1.588.638 2.446a7.434 7.434 0 0 1-.201 1.817 4.071 4.071 0 0 1-.709 1.474 6.128 6.128 0 0 1-1.356 1.28c-.679.468-1.394.88-2.14 1.234v.074a8.255 8.255 0 0 1 2.33.706Zm-2.687 8.691a3.92 3.92 0 0 0 1.255-1.492c.276-.599.415-1.25.406-1.91a6.296 6.296 0 0 0-.364-2.169 4.186 4.186 0 0 0-1.192-1.733 5.942 5.942 0 0 0-2.163-1.16c-.892-.283-1.987-.425-3.285-.425H35.86v10.202h4.87a12.145 12.145 0 0 0 3.068-.343c.77-.186 1.5-.515 2.149-.97Z" fill="#fafafa"/><path d="M103.848 27.251c.946 0 1.712-.764 1.712-1.706s-.766-1.706-1.712-1.706-1.712.764-1.712 1.706.766 1.706 1.712 1.706ZM109.168 7.088l3.423-1v-3.39L109.168 3.7v3.388ZM109.168 27.256h3.423V9.757l-3.423.973v16.526Z" fill="#fafafa"/></svg>