<svg xmlns="http://www.w3.org/2000/svg" width="24" height="24" fill="none"><g clip-path="url(#a)"><path d="M12 9.25a.967.967 0 0 0-.712.287.968.968 0 0 0-.288.713v3c0 .283.096.52.288.712a.965.965 0 0 0 .712.288.968.968 0 0 0 .713-.288.967.967 0 0 0 .287-.712v-3a.97.97 0 0 0-.287-.713A.97.97 0 0 0 12 9.25Zm0 8a.968.968 0 0 0 .713-.288.967.967 0 0 0 .287-.712.967.967 0 0 0-.287-.712.968.968 0 0 0-.713-.288.965.965 0 0 0-.712.288.965.965 0 0 0-.288.712c0 .283.096.52.288.712a.965.965 0 0 0 .712.288Z" fill="#E45561"/><path d="M3.672 17.748A.9.9 0 0 0 4.45 19.1h15.1a.9.9 0 0 0 .778-1.352l-7.55-13a.9.9 0 0 0-1.556 0l-7.55 13Z" stroke="#E45561" stroke-width="1.8" stroke-linejoin="round"/></g><defs><clipPath id="a"><path fill="#fff" d="M0 0h24v24H0z"/></clipPath></defs></svg>